<?xml version="1.0" encoding="UTF-8" standalone="no"?>
<!-- Created with Inkscape (http://www.inkscape.org/) -->

<svg
   xmlns:dc="http://purl.org/dc/elements/1.1/"
   xmlns:cc="http://creativecommons.org/ns#"
   xmlns:rdf="http://www.w3.org/1999/02/22-rdf-syntax-ns#"
   xmlns:svg="http://www.w3.org/2000/svg"
   xmlns="http://www.w3.org/2000/svg"
   xmlns:sodipodi="http://sodipodi.sourceforge.net/DTD/sodipodi-0.dtd"
   xmlns:inkscape="http://www.inkscape.org/namespaces/inkscape"
   width="210mm"
   height="297mm"
   viewBox="0 0 744.09448819 1052.3622047"
   id="svg2"
   version="1.1"
   inkscape:version="0.91 r13725"
   sodipodi:docname="LEPCSO.svg">
  <defs
     id="defs4" />
  <sodipodi:namedview
     id="base"
     pagecolor="#ffffff"
     bordercolor="#666666"
     borderopacity="1.0"
     inkscape:pageopacity="0.0"
     inkscape:pageshadow="2"
     inkscape:zoom="0.35"
     inkscape:cx="902.92103"
     inkscape:cy="545.31003"
     inkscape:document-units="px"
     inkscape:current-layer="layer1"
     showgrid="true"
     inkscape:window-width="1366"
     inkscape:window-height="705"
     inkscape:window-x="-8"
     inkscape:window-y="-8"
     inkscape:window-maximized="1">
    <inkscape:grid
       type="axonomgrid"
       id="grid4136"
       units="mm"
       empspacing="5"
       spacingy="14.173229"
       enabled="false" />
  </sodipodi:namedview>
  <metadata
     id="metadata7">
    <rdf:RDF>
      <cc:Work
         rdf:about="">
        <dc:format>image/svg+xml</dc:format>
        <dc:type
           rdf:resource="http://purl.org/dc/dcmitype/StillImage" />
        <dc:title></dc:title>
      </cc:Work>
    </rdf:RDF>
  </metadata>
  <g
     inkscape:label="1. réteg"
     inkscape:groupmode="layer"
     id="layer1">
    <g
       id="g4312"
       transform="matrix(0.68409384,0,0,0.68409384,213.26531,86.19014)">
      <path
         inkscape:connector-curvature="0"
         id="path4138"
         d="m 122.74376,1052.3622 0,-70.86614 -61.371879,-35.43307 0,70.86611 z"
         style="fill:#ff2a2a;fill-rule:evenodd;stroke:none;stroke-width:1px;stroke-linecap:butt;stroke-linejoin:miter;stroke-opacity:1" />
      <path
         inkscape:connector-curvature="0"
         id="path4140"
         d="m 61.371881,946.06299 61.371879,-35.43307 61.37188,35.43307 -61.37188,35.43307 z"
         style="fill:#ff8080;fill-rule:evenodd;stroke:none;stroke-width:1px;stroke-linecap:butt;stroke-linejoin:miter;stroke-opacity:1" />
      <path
         inkscape:connector-curvature="0"
         id="path4142"
         d="m 122.74376,1052.3622 61.37188,-35.4331 0,-70.86611 -61.37188,35.43307 z"
         style="fill:#ff5555;fill-rule:evenodd;stroke:none;stroke-width:1px;stroke-linecap:butt;stroke-linejoin:miter;stroke-opacity:1" />
      <path
         inkscape:connector-curvature="0"
         id="path4144"
         d="m 184.11564,1016.9291 0,-70.86611 61.37188,35.43307 0,70.86614 z"
         style="fill:#ff2a2a;fill-rule:evenodd;stroke:none;stroke-width:1px;stroke-linecap:butt;stroke-linejoin:miter;stroke-opacity:1" />
      <path
         inkscape:connector-curvature="0"
         id="path4146"
         d="m 184.11564,946.06299 61.37188,-35.43307 61.37188,35.43307 -61.37188,35.43307 z"
         style="fill:#ff8080;fill-rule:evenodd;stroke:none;stroke-width:1px;stroke-linecap:butt;stroke-linejoin:miter;stroke-opacity:1" />
      <path
         inkscape:connector-curvature="0"
         id="path4150"
         d="m 245.48752,981.49606 61.37188,-35.43307 0,70.86611 -61.37188,35.4331 z"
         style="fill:#ff5555;fill-rule:evenodd;stroke:none;stroke-width:1px;stroke-linecap:butt;stroke-linejoin:miter;stroke-opacity:1" />
      <path
         inkscape:connector-curvature="0"
         id="path4152"
         d="m 306.8594,946.06299 61.37188,-35.43307 61.37188,35.43307 -61.37188,35.43307 z"
         style="fill:#ff8080;fill-rule:evenodd;stroke:none;stroke-width:1px;stroke-linecap:butt;stroke-linejoin:miter;stroke-opacity:1" />
      <path
         inkscape:connector-curvature="0"
         id="path4154"
         d="m 306.8594,946.06299 0,70.86611 61.37188,35.4331 0,-70.86614 z"
         style="fill:#ff2a2a;fill-rule:evenodd;stroke:none;stroke-width:1px;stroke-linecap:butt;stroke-linejoin:miter;stroke-opacity:1" />
      <path
         inkscape:connector-curvature="0"
         id="path4156"
         d="m 368.23128,981.49606 61.37188,-35.43307 0,70.86611 -61.37188,35.4331 z"
         style="fill:#ff5555;fill-rule:evenodd;stroke:none;stroke-width:1px;stroke-linecap:butt;stroke-linejoin:miter;stroke-opacity:1" />
      <path
         inkscape:connector-curvature="0"
         id="path4158"
         d="m 429.60316,946.06299 61.37188,-35.43307 61.37188,35.43307 -61.37188,35.43307 z"
         style="fill:#ff8080;fill-rule:evenodd;stroke:none;stroke-width:1px;stroke-linecap:butt;stroke-linejoin:miter;stroke-opacity:1" />
      <path
         inkscape:connector-curvature="0"
         id="path4160"
         d="m 429.60316,946.06299 0,70.86611 61.37188,35.4331 0,-70.86614 z"
         style="fill:#ff2a2a;fill-rule:evenodd;stroke:none;stroke-width:1px;stroke-linecap:butt;stroke-linejoin:miter;stroke-opacity:1" />
      <path
         inkscape:connector-curvature="0"
         id="path4162"
         d="m 490.97504,981.49606 61.37188,-35.43307 0,70.86611 -61.37188,35.4331 z"
         style="fill:#ff5555;fill-rule:evenodd;stroke:none;stroke-width:1px;stroke-linecap:butt;stroke-linejoin:miter;stroke-opacity:1" />
      <path
         inkscape:connector-curvature="0"
         id="path4166"
         d="m 613.71881,981.49606 61.37188,-35.43307 0,70.86611 -61.37188,35.4331 0,-70.86614 z"
         style="fill:#ff5555;fill-rule:evenodd;stroke:none;stroke-width:1px;stroke-linecap:butt;stroke-linejoin:miter;stroke-opacity:1" />
      <path
         inkscape:connector-curvature="0"
         id="path4168"
         d="m 552.34692,946.06299 -61.37188,-35.43307 0,-70.86615 61.37188,35.43308 z"
         style="fill:#ff6600;fill-rule:evenodd;stroke:none;stroke-width:1px;stroke-linecap:butt;stroke-linejoin:miter;stroke-opacity:1" />
      <path
         inkscape:connector-curvature="0"
         id="path4170"
         d="m 552.34692,946.06299 61.37189,-35.43307 0,-70.86615 -61.37189,35.43308 0,70.86614 z"
         style="fill:#ff7f2a;fill-rule:evenodd;stroke:none;stroke-width:1px;stroke-linecap:butt;stroke-linejoin:miter;stroke-opacity:1" />
      <path
         inkscape:connector-curvature="0"
         id="path4172"
         d="m 490.97504,839.76377 61.37188,-35.43307 61.37189,35.43307 -61.37189,35.43308 -61.37188,-35.43308 z"
         style="fill:#ff9955;fill-rule:evenodd;stroke:none;stroke-width:1px;stroke-linecap:butt;stroke-linejoin:miter;stroke-opacity:1" />
      <path
         inkscape:connector-curvature="0"
         id="path4174"
         d="m 490.97504,839.76377 -61.37188,-35.43307 -61.37188,35.43307 61.37188,35.43308 z"
         style="fill:#ff9955;fill-rule:evenodd;stroke:none;stroke-width:1px;stroke-linecap:butt;stroke-linejoin:miter;stroke-opacity:1" />
      <path
         inkscape:connector-curvature="0"
         id="path4176"
         d="m 429.60316,875.19685 0,70.86614 61.37188,-35.43307 0,-70.86615 z"
         style="fill:#ff7f2a;fill-rule:evenodd;stroke:none;stroke-width:1px;stroke-linecap:butt;stroke-linejoin:miter;stroke-opacity:1" />
      <path
         inkscape:connector-curvature="0"
         id="path4178"
         d="m 429.60316,875.19685 -61.37188,-35.43308 0,70.86615 61.37188,35.43307 z"
         style="fill:#ff6600;fill-rule:evenodd;stroke:none;stroke-width:1px;stroke-linecap:butt;stroke-linejoin:miter;stroke-opacity:1" />
      <path
         inkscape:connector-curvature="0"
         id="path4180"
         d="M 368.23128,839.76377 306.8594,875.19685 245.48752,839.76377 306.8594,804.3307 Z"
         style="fill:#ff9955;fill-rule:evenodd;stroke:none;stroke-width:1px;stroke-linecap:butt;stroke-linejoin:miter;stroke-opacity:1" />
      <path
         inkscape:connector-curvature="0"
         id="path4182"
         d="m 306.8594,875.19685 0,70.86614 61.37188,-35.43307 0,-70.86615 z"
         style="fill:#ff7f2a;fill-rule:evenodd;stroke:none;stroke-width:1px;stroke-linecap:butt;stroke-linejoin:miter;stroke-opacity:1" />
      <path
         inkscape:connector-curvature="0"
         id="path4184"
         d="m 306.8594,875.19685 -61.37188,-35.43308 0,70.86615 61.37188,35.43307 0,-70.86614 z"
         style="fill:#ff6600;fill-rule:evenodd;stroke:none;stroke-width:1px;stroke-linecap:butt;stroke-linejoin:miter;stroke-opacity:1" />
      <path
         inkscape:connector-curvature="0"
         id="path4186"
         d="m 245.48752,910.62992 -61.37188,35.43307 0,-70.86614 61.37188,-35.43308 z"
         style="fill:#ff7f2a;fill-rule:evenodd;stroke:none;stroke-width:1px;stroke-linecap:butt;stroke-linejoin:miter;stroke-opacity:1" />
      <path
         inkscape:connector-curvature="0"
         id="path4188"
         d="m 245.48752,839.76377 -61.37188,-35.43307 -61.37188,35.43307 61.37188,35.43308 z"
         style="fill:#ff9955;fill-rule:evenodd;stroke:none;stroke-width:1px;stroke-linecap:butt;stroke-linejoin:miter;stroke-opacity:1" />
      <path
         inkscape:connector-curvature="0"
         id="path4192"
         d="m 184.11564,875.19685 -61.37188,-35.43308 0,70.86615 61.37188,35.43307 z"
         style="fill:#ff6600;fill-rule:evenodd;stroke:none;stroke-width:1px;stroke-linecap:butt;stroke-linejoin:miter;stroke-opacity:1" />
      <path
         inkscape:connector-curvature="0"
         id="path4194"
         d="m 122.74376,839.76377 -61.371879,-35.43307 0,-70.86614 61.371879,35.43307 z"
         style="fill:#ffd42a;fill-rule:evenodd;stroke:none;stroke-width:1px;stroke-linecap:butt;stroke-linejoin:miter;stroke-opacity:1" />
      <path
         inkscape:connector-curvature="0"
         id="path4196"
         d="m 122.74376,839.76377 61.37188,-35.43307 0,-70.86614 -61.37188,35.43307 z"
         style="fill:#ffdd55;fill-rule:evenodd;stroke:none;stroke-width:1px;stroke-linecap:butt;stroke-linejoin:miter;stroke-opacity:1" />
      <path
         inkscape:connector-curvature="0"
         id="path4198"
         d="m 61.371881,733.46456 61.371879,-35.43307 61.37188,35.43307 -61.37188,35.43307 z"
         style="fill:#ffe680;fill-rule:evenodd;stroke:none;stroke-width:1px;stroke-linecap:butt;stroke-linejoin:miter;stroke-opacity:1" />
      <path
         inkscape:connector-curvature="0"
         id="path4200"
         d="m 184.11564,733.46456 61.37188,-35.43307 61.37188,35.43307 -61.37188,35.43307 z"
         style="fill:#ffe680;fill-rule:evenodd;stroke:none;stroke-width:1px;stroke-linecap:butt;stroke-linejoin:miter;stroke-opacity:1" />
      <path
         inkscape:connector-curvature="0"
         id="path4202"
         d="m 184.11564,733.46456 0,70.86614 61.37188,35.43307 0,-70.86614 z"
         style="fill:#ffd42a;fill-rule:evenodd;stroke:none;stroke-width:1px;stroke-linecap:butt;stroke-linejoin:miter;stroke-opacity:1" />
      <path
         inkscape:connector-curvature="0"
         id="path4204"
         d="m 245.48752,768.89763 0,70.86614 61.37188,-35.43307 0,-70.86614 z"
         style="fill:#ffdd55;fill-rule:evenodd;stroke:none;stroke-width:1px;stroke-linecap:butt;stroke-linejoin:miter;stroke-opacity:1" />
      <path
         inkscape:connector-curvature="0"
         id="path4206"
         d="m 306.8594,733.46456 61.37188,-35.43307 61.37188,35.43307 -61.37188,35.43307 z"
         style="fill:#ffe680;fill-rule:evenodd;stroke:none;stroke-width:1px;stroke-linecap:butt;stroke-linejoin:miter;stroke-opacity:1" />
      <path
         inkscape:connector-curvature="0"
         id="path4208"
         d="m 368.23128,768.89763 0,70.86614 -61.37188,-35.43307 0,-70.86614 z"
         style="fill:#ffd42a;fill-rule:evenodd;stroke:none;stroke-width:1px;stroke-linecap:butt;stroke-linejoin:miter;stroke-opacity:1" />
      <path
         inkscape:connector-curvature="0"
         id="path4210"
         d="m 368.23128,768.89763 61.37188,-35.43307 0,70.86614 -61.37188,35.43307 z"
         style="fill:#ffdd55;fill-rule:evenodd;stroke:none;stroke-width:1px;stroke-linecap:butt;stroke-linejoin:miter;stroke-opacity:1" />
      <path
         inkscape:connector-curvature="0"
         id="path4212"
         d="m 429.60316,733.46456 61.37188,-35.43307 61.37188,35.43307 -61.37188,35.43307 z"
         style="fill:#ffe680;fill-rule:evenodd;stroke:none;stroke-width:1px;stroke-linecap:butt;stroke-linejoin:miter;stroke-opacity:1" />
      <path
         inkscape:connector-curvature="0"
         id="path4214"
         d="m 429.60316,733.46456 0,70.86614 61.37188,35.43307 0,-70.86614 z"
         style="fill:#ffd42a;fill-rule:evenodd;stroke:none;stroke-width:1px;stroke-linecap:butt;stroke-linejoin:miter;stroke-opacity:1" />
      <path
         inkscape:connector-curvature="0"
         id="path4216"
         d="m 490.97504,768.89763 0,70.86614 61.37188,-35.43307 0,-70.86614 z"
         style="fill:#ffdd55;fill-rule:evenodd;stroke:none;stroke-width:1px;stroke-linecap:butt;stroke-linejoin:miter;stroke-opacity:1" />
      <path
         inkscape:connector-curvature="0"
         id="path4218"
         d="M 61.371881,946.06299 0,910.62992 -61.371881,946.06299 0,981.49606 61.371881,946.06299 Z"
         style="fill:#ff8080;fill-rule:evenodd;stroke:none;stroke-width:1px;stroke-linecap:butt;stroke-linejoin:miter;stroke-opacity:1" />
      <path
         inkscape:connector-curvature="0"
         id="path4220"
         d="m 0,981.49606 0,70.86614 61.371881,-35.4331 0,-70.86611 z"
         style="fill:#ff5555;fill-rule:evenodd;stroke:none;stroke-width:1px;stroke-linecap:butt;stroke-linejoin:miter;stroke-opacity:1" />
      <path
         inkscape:connector-curvature="0"
         id="path4222"
         d="m 0,981.49606 -61.371881,-35.43307 0,70.86611 L 0,1052.3622 0,981.49606 Z"
         style="fill:#ff2a2a;fill-rule:evenodd;stroke:none;stroke-width:1px;stroke-linecap:butt;stroke-linejoin:miter;stroke-opacity:1" />
      <path
         inkscape:connector-curvature="0"
         id="path4224"
         d="m -61.371881,946.06299 -61.371879,-35.43307 -61.37188,35.43307 61.37188,35.43307 z"
         style="fill:#ff8080;fill-rule:evenodd;stroke:none;stroke-width:1px;stroke-linecap:butt;stroke-linejoin:miter;stroke-opacity:1" />
      <path
         inkscape:connector-curvature="0"
         id="path4226"
         d="m -61.371881,946.06299 0,70.86611 -61.371879,35.4331 0,-70.86614 z"
         style="fill:#ff5555;fill-rule:evenodd;stroke:none;stroke-width:1px;stroke-linecap:butt;stroke-linejoin:miter;stroke-opacity:1" />
      <path
         inkscape:connector-curvature="0"
         id="path4228"
         d="m -122.74376,981.49606 -61.37188,-35.43307 0,70.86611 61.37188,35.4331 z"
         style="fill:#ff2a2a;fill-rule:evenodd;stroke:none;stroke-width:1px;stroke-linecap:butt;stroke-linejoin:miter;stroke-opacity:1" />
      <path
         inkscape:connector-curvature="0"
         id="path4230"
         d="m 0,910.62992 0,-70.86615 61.371881,35.43308 0,70.86614 z"
         style="fill:#ff6600;fill-rule:evenodd;stroke:none;stroke-width:1px;stroke-linecap:butt;stroke-linejoin:miter;stroke-opacity:1" />
      <path
         inkscape:connector-curvature="0"
         id="path4232"
         d="M 0,839.76377 61.371881,804.3307 122.74376,839.76377 61.371881,875.19685 Z"
         style="fill:#ff9955;fill-rule:evenodd;stroke:none;stroke-width:1px;stroke-linecap:butt;stroke-linejoin:miter;stroke-opacity:1" />
      <path
         inkscape:connector-curvature="0"
         id="path4234"
         d="m 61.371881,875.19685 0,70.86614 61.371879,-35.43307 0,-70.86615 z"
         style="fill:#ff7f2a;fill-rule:evenodd;stroke:none;stroke-width:1px;stroke-linecap:butt;stroke-linejoin:miter;stroke-opacity:1" />
      <path
         inkscape:connector-curvature="0"
         id="path4236"
         d="m 0,910.62992 -61.371881,35.43307 0,-70.86614 L 0,839.76377 Z"
         style="fill:#ff7f2a;fill-rule:evenodd;stroke:none;stroke-width:1px;stroke-linecap:butt;stroke-linejoin:miter;stroke-opacity:1" />
      <path
         inkscape:connector-curvature="0"
         id="path4238"
         d="M -61.371881,875.19685 -122.74376,839.76377 -61.371881,804.3307 0,839.76377 Z"
         style="fill:#ff9955;fill-rule:evenodd;stroke:none;stroke-width:1px;stroke-linecap:butt;stroke-linejoin:miter;stroke-opacity:1" />
      <path
         inkscape:connector-curvature="0"
         id="path4240"
         d="m -61.371881,875.19685 0,70.86614 -61.371879,-35.43307 0,-70.86615 z"
         style="fill:#ff6600;fill-rule:evenodd;stroke:none;stroke-width:1px;stroke-linecap:butt;stroke-linejoin:miter;stroke-opacity:1" />
      <path
         inkscape:connector-curvature="0"
         id="path4242"
         d="m 0,839.76377 61.371881,-35.43307 0,-70.86614 L 0,768.89763 Z"
         style="fill:#ffdd55;fill-rule:evenodd;stroke:none;stroke-width:1px;stroke-linecap:butt;stroke-linejoin:miter;stroke-opacity:1" />
      <path
         inkscape:connector-curvature="0"
         id="path4244"
         d="m 0,768.89763 0,70.86614 -61.371881,-35.43307 0,-70.86614 z"
         style="fill:#ffd42a;fill-rule:evenodd;stroke:none;stroke-width:1px;stroke-linecap:butt;stroke-linejoin:miter;stroke-opacity:1" />
      <path
         inkscape:connector-curvature="0"
         id="path4246"
         d="M -61.371881,733.46456 0,698.03149 61.371881,733.46456 0,768.89763 Z"
         style="fill:#ffe680;fill-rule:evenodd;stroke:none;stroke-width:1px;stroke-linecap:butt;stroke-linejoin:miter;stroke-opacity:1" />
      <path
         inkscape:connector-curvature="0"
         id="path4248"
         d="m 429.60316,733.46456 61.37188,-35.43307 0,-70.86615 -61.37188,35.43308 z"
         style="fill:#5fd35f;fill-rule:evenodd;stroke:none;stroke-width:1px;stroke-linecap:butt;stroke-linejoin:miter;stroke-opacity:1" />
      <path
         inkscape:connector-curvature="0"
         id="path4250"
         d="m 429.60316,662.59842 -61.37188,-35.43308 0,70.86615 61.37188,35.43307 z"
         style="fill:#37c837;fill-rule:evenodd;stroke:none;stroke-width:1px;stroke-linecap:butt;stroke-linejoin:miter;stroke-opacity:1" />
      <path
         inkscape:connector-curvature="0"
         id="path4252"
         d="m 490.97504,627.16534 -61.37188,-35.43307 -61.37188,35.43307 61.37188,35.43308 z"
         style="fill:#87de87;fill-rule:evenodd;stroke:none;stroke-width:1px;stroke-linecap:butt;stroke-linejoin:miter;stroke-opacity:1" />
      <path
         inkscape:connector-curvature="0"
         id="path4254"
         d="m 368.23128,698.03149 0,-70.86615 -61.37188,35.43308 0,70.86614 61.37188,-35.43307 z"
         style="fill:#5fd35f;fill-rule:evenodd;stroke:none;stroke-width:1px;stroke-linecap:butt;stroke-linejoin:miter;stroke-opacity:1" />
      <path
         inkscape:connector-curvature="0"
         id="path4256"
         d="m 306.8594,662.59842 -61.37188,-35.43308 0,70.86615 61.37188,35.43307 0,-70.86614 z"
         style="fill:#37c837;fill-rule:evenodd;stroke:none;stroke-width:1px;stroke-linecap:butt;stroke-linejoin:miter;stroke-opacity:1" />
      <path
         inkscape:connector-curvature="0"
         id="path4258"
         d="m 245.48752,627.16534 61.37188,-35.43307 61.37188,35.43307 -61.37188,35.43308 z"
         style="fill:#87de87;fill-rule:evenodd;stroke:none;stroke-width:1px;stroke-linecap:butt;stroke-linejoin:miter;stroke-opacity:1" />
      <path
         inkscape:connector-curvature="0"
         id="path4260"
         d="m 245.48752,627.16534 0,70.86615 -61.37188,35.43307 0,-70.86614 z"
         style="fill:#5fd35f;fill-rule:evenodd;stroke:none;stroke-width:1px;stroke-linecap:butt;stroke-linejoin:miter;stroke-opacity:1" />
      <path
         inkscape:connector-curvature="0"
         id="path4262"
         d="m 245.48752,627.16534 -61.37188,-35.43307 -61.37188,35.43307 61.37188,35.43308 61.37188,-35.43308 z"
         style="fill:#87de87;fill-rule:evenodd;stroke:none;stroke-width:1px;stroke-linecap:butt;stroke-linejoin:miter;stroke-opacity:1" />
      <path
         inkscape:connector-curvature="0"
         id="path4264"
         d="m 184.11564,662.59842 0,70.86614 -61.37188,-35.43307 0,-70.86615 z"
         style="fill:#37c837;fill-rule:evenodd;stroke:none;stroke-width:1px;stroke-linecap:butt;stroke-linejoin:miter;stroke-opacity:1" />
      <path
         inkscape:connector-curvature="0"
         id="path4266"
         d="m 122.74376,627.16534 0,70.86615 -61.371879,35.43307 0,-70.86614 z"
         style="fill:#5fd35f;fill-rule:evenodd;stroke:none;stroke-width:1px;stroke-linecap:butt;stroke-linejoin:miter;stroke-opacity:1" />
      <path
         inkscape:connector-curvature="0"
         id="path4268"
         d="M 122.74376,627.16534 61.371881,591.73227 0,627.16534 61.371881,662.59842 Z"
         style="fill:#87de87;fill-rule:evenodd;stroke:none;stroke-width:1px;stroke-linecap:butt;stroke-linejoin:miter;stroke-opacity:1" />
      <path
         inkscape:connector-curvature="0"
         id="path4270"
         d="M 61.371881,662.59842 0,627.16534 l 0,70.86615 61.371881,35.43307 z"
         style="fill:#37c837;fill-rule:evenodd;stroke:none;stroke-width:1px;stroke-linecap:butt;stroke-linejoin:miter;stroke-opacity:1" />
      <path
         inkscape:connector-curvature="0"
         id="path4272"
         d="m 429.60316,591.73227 0,-70.86614 -61.37188,35.43307 0,70.86614 z"
         style="fill:#5f8dd3;fill-rule:evenodd;stroke:none;stroke-width:1px;stroke-linecap:butt;stroke-linejoin:miter;stroke-opacity:1" />
      <path
         inkscape:connector-curvature="0"
         id="path4274"
         d="m 368.23128,556.2992 -61.37188,-35.43307 0,70.86614 61.37188,35.43307 z"
         style="fill:#3771c8;fill-rule:evenodd;stroke:none;stroke-width:1px;stroke-linecap:butt;stroke-linejoin:miter;stroke-opacity:1" />
      <path
         inkscape:connector-curvature="0"
         id="path4276"
         d="m 306.8594,520.86613 61.37188,-35.43307 61.37188,35.43307 -61.37188,35.43307 z"
         style="fill:#87aade;fill-rule:evenodd;stroke:none;stroke-width:1px;stroke-linecap:butt;stroke-linejoin:miter;stroke-opacity:1" />
      <path
         inkscape:connector-curvature="0"
         id="path4278"
         d="m 306.8594,520.86613 0,70.86614 -61.37188,35.43307 0,-70.86614 z"
         style="fill:#5f8dd3;fill-rule:evenodd;stroke:none;stroke-width:1px;stroke-linecap:butt;stroke-linejoin:miter;stroke-opacity:1" />
      <path
         inkscape:connector-curvature="0"
         id="path4280"
         d="m 306.8594,520.86613 -61.37188,-35.43307 -61.37188,35.43307 61.37188,35.43307 z"
         style="fill:#87aade;fill-rule:evenodd;stroke:none;stroke-width:1px;stroke-linecap:butt;stroke-linejoin:miter;stroke-opacity:1" />
      <path
         inkscape:connector-curvature="0"
         id="path4282"
         d="m 245.48752,556.2992 0,70.86614 -61.37188,-35.43307 0,-70.86614 z"
         style="fill:#3771c8;fill-rule:evenodd;stroke:none;stroke-width:1px;stroke-linecap:butt;stroke-linejoin:miter;stroke-opacity:1" />
      <path
         inkscape:connector-curvature="0"
         id="path4284"
         d="m 184.11564,520.86613 -61.37188,35.43307 0,70.86614 61.37188,-35.43307 z"
         style="fill:#5f8dd3;fill-rule:evenodd;stroke:none;stroke-width:1px;stroke-linecap:butt;stroke-linejoin:miter;stroke-opacity:1" />
      <path
         inkscape:connector-curvature="0"
         id="path4286"
         d="m 184.11564,520.86613 -61.37188,-35.43307 -61.371879,35.43307 61.371879,35.43307 61.37188,-35.43307 z"
         style="fill:#87aade;fill-rule:evenodd;stroke:none;stroke-width:1px;stroke-linecap:butt;stroke-linejoin:miter;stroke-opacity:1" />
      <path
         inkscape:connector-curvature="0"
         id="path4288"
         d="m 122.74376,556.2992 -61.371879,-35.43307 0,70.86614 61.371879,35.43307 z"
         style="fill:#3771c8;fill-rule:evenodd;stroke:none;stroke-width:1px;stroke-linecap:butt;stroke-linejoin:miter;stroke-opacity:1" />
      <path
         inkscape:connector-curvature="0"
         id="path4290"
         d="m 368.23128,485.43306 0,-70.86615 -61.37188,35.43307 0,70.86615 z"
         style="fill:#bc5fd3;fill-rule:evenodd;stroke:none;stroke-width:1px;stroke-linecap:butt;stroke-linejoin:miter;stroke-opacity:1" />
      <path
         inkscape:connector-curvature="0"
         id="path4292"
         d="m 368.23128,414.56691 -61.37188,-35.43307 -61.37188,35.43307 61.37188,35.43307 z"
         style="fill:#cd87de;fill-rule:evenodd;stroke:none;stroke-width:1px;stroke-linecap:butt;stroke-linejoin:miter;stroke-opacity:1" />
      <path
         inkscape:connector-curvature="0"
         id="path4294"
         d="m 245.48752,414.56691 0,70.86615 61.37188,35.43307 0,-70.86615 z"
         style="fill:#ab37c8;fill-rule:evenodd;stroke:none;stroke-width:1px;stroke-linecap:butt;stroke-linejoin:miter;stroke-opacity:1" />
      <path
         inkscape:connector-curvature="0"
         id="path4296"
         d="m 245.48752,414.56691 0,70.86615 -61.37188,35.43307 0,-70.86615 z"
         style="fill:#bc5fd3;fill-rule:evenodd;stroke:none;stroke-width:1px;stroke-linecap:butt;stroke-linejoin:miter;stroke-opacity:1" />
      <path
         inkscape:connector-curvature="0"
         id="path4298"
         d="m 245.48752,414.56691 -61.37188,-35.43307 -61.37188,35.43307 61.37188,35.43307 z"
         style="fill:#cd87de;fill-rule:evenodd;stroke:none;stroke-width:1px;stroke-linecap:butt;stroke-linejoin:miter;stroke-opacity:1" />
      <path
         inkscape:connector-curvature="0"
         id="path4300"
         d="m 184.11564,520.86613 0,-70.86615 -61.37188,-35.43307 0,70.86615 z"
         style="fill:#ab37c8;fill-rule:evenodd;stroke:none;stroke-width:1px;stroke-linecap:butt;stroke-linejoin:miter;stroke-opacity:1" />
      <path
         inkscape:connector-curvature="0"
         id="path4302"
         d="m 306.8594,379.13384 0,-70.86614 -61.37188,35.43307 0,70.86614 z"
         style="fill:#ddafe9;fill-rule:evenodd;stroke:none;stroke-width:1px;stroke-linecap:butt;stroke-linejoin:miter;stroke-opacity:1" />
      <path
         inkscape:connector-curvature="0"
         id="path4304"
         d="m 245.48752,343.70077 -61.37188,-35.43307 0,70.86614 61.37188,35.43307 z"
         style="fill:#cd87de;fill-rule:evenodd;stroke:none;stroke-width:1px;stroke-linecap:butt;stroke-linejoin:miter;stroke-opacity:1" />
      <path
         inkscape:connector-curvature="0"
         id="path4306"
         d="m 306.8594,308.2677 -61.37188,-35.43307 -61.37188,35.43307 61.37188,35.43307 z"
         style="fill:#eed7f4;fill-rule:evenodd;stroke:none;stroke-width:1px;stroke-linecap:butt;stroke-linejoin:miter;stroke-opacity:1" />
      <path
         inkscape:connector-curvature="0"
         id="path4308"
         d="m 613.71881,981.49606 -61.37189,-35.43307 61.37189,-35.43307 61.37188,35.43307 z"
         style="fill:#ff8080;fill-rule:evenodd;stroke:none;stroke-width:1px;stroke-linecap:butt;stroke-linejoin:miter;stroke-opacity:1" />
      <path
         inkscape:connector-curvature="0"
         id="path4310"
         d="m 552.34692,946.06299 0,70.86611 61.37189,35.4331 0,-70.86614 z"
         style="fill:#ff2a2a;fill-rule:evenodd;stroke:none;stroke-width:1px;stroke-linecap:butt;stroke-linejoin:miter;stroke-opacity:1" />
    </g>
  </g>
</svg>
